{
  "accessors": [
    {
      "bufferView": 2,
      "componentType": 5126,
      "count": 65532,
      "max": [
        1.000000238418579,
        0.785460352897644,
        1.7821924686431885
      ],
      "min": [
        -0.7854604125022888,
        -0.7854604721069336,
        0.03932880982756615
      ],
      "type": "VEC3"
    },
    {
      "bufferView": 2,
      "byteOffset": 786384,
      "componentType": 5126,
      "count": 65532,
      "max": [
        1.0,
        0.9232544302940369,
        0.5141808986663818
      ],
      "min": [
        -0.8475896716117859,
        -0.9232536554336548,
        -1.0
      ],
      "type": "VEC3"
    },
    {
      "bufferView": 1,
      "componentType": 5126,
      "count": 65532,
      "max": [
        0.593040943145752,
        0.722819447517395
      ],
      "min": [
        0.15218068659305573,
        0.5271807312965393
      ],
      "type": "VEC2"
    },
    {
      "bufferView": 0,
      "componentType": 5125,
      "count": 98298,
      "type": "SCALAR"
    },
    {
      "bufferView": 2,
      "byteOffset": 1572768,
      "componentType": 5126,
      "count": 65532,
      "max": [
        1.000000238418579,
        1.000000238418579,
        1.8244162797927856
      ],
      "min": [
        -1.000000238418579,
        -0.7850871682167053,
        0.2542417347431183
      ],
      "type": "VEC3"
    },
    {
      "bufferView": 2,
      "byteOffset": 2359152,
      "componentType": 5126,
      "count": 65532,
      "max": [
        1.0,
        1.0,
        0.9232574701309204
      ],
      "min": [
        -1.0,
        -0.9232527017593384,
        -0.9232749938964844
      ],
      "type": "VEC3"
    },
    {
      "bufferView": 1,
      "byteOffset": 524256,
      "componentType": 5126,
      "count": 65532,
      "max": [
        0.597776472568512,
        0.7227765321731567
      ],
      "min": [
        0.4022235572338104,
        0.027230992913246155
      ],
      "type": "VEC2"
    },
    {
      "bufferView": 0,
      "byteOffset": 393192,
      "componentType": 5125,
      "count": 98298,
      "type": "SCALAR"
    },
    {
      "bufferView": 2,
      "byteOffset": 3145536,
      "componentType": 5126,
      "count": 65534,
      "max": [
        0.8004146218299866,
        0.785021960735321,
        2.0393295288085938
      ],
      "min": [
        -1.000000238418579,
        -1.000000238418579,
        0.2389143854379654
      ],
      "type": "VEC3"
    },
    {
      "bufferView": 2,
      "byteOffset": 3931944,
      "componentType": 5126,
      "count": 65534,
      "max": [
        0.8021024465560913,
        0.9117067456245422,
        1.0
      ],
      "min": [
        -1.0,
        -1.0,
        -0.9117242693901062
      ],
      "type": "VEC3"
    },
    {
      "bufferView": 1,
      "byteOffset": 1048512,
      "componentType": 5126,
      "count": 65534,
      "max": [
        0.7849050164222717,
        0.972716748714447
      ],
      "min": [
        0.40223103761672974,
        0.0
      ],
      "type": "VEC2"
    },
    {
      "bufferView": 0,
      "byteOffset": 786384,
      "componentType": 5125,
      "count": 100071,
      "type": "SCALAR"
    },
    {
      "bufferView": 2,
      "byteOffset": 4718352,
      "componentType": 5126,
      "count": 65534,
      "max": [
        0.9583334922790527,
        1.000000238418579,
        1.9976624250411987
      ],
      "min": [
        -1.000000238418579,
        -1.000000238418579,
        0.03932880982756615
      ],
      "type": "VEC3"
    },
    {
      "bufferView": 2,
      "byteOffset": 5504760,
      "componentType": 5126,
      "count": 65534,
      "max": [
        0.6629867553710938,
        0.9999998807907104,
        0.6629766821861267
      ],
      "min": [
        -1.0,
        -1.0,
        -1.0
      ],
      "type": "VEC3"
    },
    {
      "bufferView": 1,
      "byteOffset": 1572784,
      "componentType": 5126,
      "count": 65534,
      "max": [
        0.6250000596046448,
        1.0000001192092896
      ],
      "min": [
        0.21764694154262543,
        0.0
      ],
      "type": "VEC2"
    },
    {
      "bufferView": 0,
      "byteOffset": 1186668,
      "componentType": 5125,
      "count": 99486,
      "type": "SCALAR"
    },
    {
      "bufferView": 2,
      "byteOffset": 6291168,
      "componentType": 5126,
      "count": 65534,
      "max": [
        0.9999999403953552,
        0.9999999403953552,
        2.0393295288085938
      ],
      "min": [
        -1.0,
        -1.0,
        0.03932880982756615
      ],
      "type": "VEC3"
    },
    {
      "bufferView": 2,
      "byteOffset": 7077576,
      "componentType": 5126,
      "count": 65534,
      "max": [
        0.9999997615814209,
        0.9999997615814209,
        1.0
      ],
      "min": [
        -0.9999996423721313,
        -0.9999996423721313,
        -1.0
      ],
      "type": "VEC3"
    },
    {
      "bufferView": 1,
      "byteOffset": 2097056,
      "componentType": 5126,
      "count": 65534,
      "max": [
        0.8750001192092896,
        1.0000001192092896
      ],
      "min": [
        0.125,
        0.2187499850988388
      ],
      "type": "VEC2"
    },
    {
      "bufferView": 0,
      "byteOffset": 1584612,
      "componentType": 5125,
      "count": 98322,
      "type": "SCALAR"
    },
    {
      "bufferView": 2,
      "byteOffset": 7863984,
      "componentType": 5126,
      "count": 65532,
      "max": [
        1.000000238418579,
        0.9583334922790527,
        2.0393295288085938
      ],
      "min": [
        -0.9583335518836975,
        -1.000000238418579,
        0.08099548518657684
      ],
      "type": "VEC3"
    },
    {
      "bufferView": 2,
      "byteOffset": 8650368,
      "componentType": 5126,
      "count": 65532,
      "max": [
        0.9999998807907104,
        0.6625956892967224,
        1.0
      ],
      "min": [
        -0.6626092195510864,
        -1.0,
        -0.662593424320221
      ],
      "type": "VEC3"
    },
    {
      "bufferView": 1,
      "byteOffset": 2621328,
      "componentType": 5126,
      "count": 65532,
      "max": [
        0.8750001192092896,
        0.9687501788139343
      ],
      "min": [
        0.375,
        0.5
      ],
      "type": "VEC2"
    },
    {
      "bufferView": 0,
      "byteOffset": 1977900,
      "componentType": 5125,
      "count": 99390,
      "type": "SCALAR"
    },
    {
      "bufferView": 2,
      "byteOffset": 9436752,
      "componentType": 5126,
      "count": 65533,
      "max": [
        1.000000238418579,
        1.000000238418579,
        1.9976625442504883
      ],
      "min": [
        -0.9583334922790527,
        -0.958333432674408,
        0.08099547773599625
      ],
      "type": "VEC3"
    },
    {
      "bufferView": 2,
      "byteOffset": 10223148,
      "componentType": 5126,
      "count": 65533,
      "max": [
        1.0,
        1.0,
        0.6629911661148071
      ],
      "min": [
        -0.6629722714424133,
        -0.6844005584716797,
        -0.6629804372787476
      ],
      "type": "VEC3"
    },
    {
      "bufferView": 1,
      "byteOffset": 3145584,
      "componentType": 5126,
      "count": 65533,
      "max": [
        0.6250001192092896,
        0.7500001788139343
      ],
      "min": [
        0.375,
        0.2499999850988388
      ],
      "type": "VEC2"
    },
    {
      "bufferView": 0,
      "byteOffset": 2375460,
      "componentType": 5125,
      "count": 100668,
      "type": "SCALAR"
    },
    {
      "bufferView": 2,
      "byteOffset": 11009544,
      "componentType": 5126,
      "count": 15830,
      "max": [
        0.7500001192092896,
        1.000000238418579,
        1.9976624250411987
      ],
      "min": [
        -0.9583334922790527,
        0.9375001192092896,
        1.0393288135528564
      ],
      "type": "VEC3"
    },
    {
      "bufferView": 2,
      "byteOffset": 11199504,
      "componentType": 5126,
      "count": 15830,
      "max": [
        0.004822463728487492,
        1.0,
        0.6629785299301147
      ],
      "min": [
        -0.6629748344421387,
        0.6117567420005798,
        -0.00482248654589057
      ],
      "type": "VEC3"
    },
    {
      "bufferView": 1,
      "byteOffset": 3669848,
      "componentType": 5126,
      "count": 15830,
      "max": [
        0.6250000596046448,
        0.4687500298023224
      ],
      "min": [
        0.5,
        0.2499999850988388
      ],
      "type": "VEC2"
    },
    {
      "bufferView": 0,
      "byteOffset": 2778132,
      "componentType": 5125,
      "count": 24315,
      "type": "SCALAR"
    },
    {
      "bufferView": 2,
      "byteOffset": 11389464,
      "componentType": 5126,
      "count": 65532,
      "max": [
        0.7131762504577637,
        0.986473023891449,
        2.023203134536743
      ],
      "min": [
        -0.9831337332725525,
        -0.9849899411201477,
        0.05067206546664238
      ],
      "type": "VEC3"
    },
    {
      "bufferView": 2,
      "byteOffset": 12175848,
      "componentType": 5126,
      "count": 65532,
      "max": [
        0.9465658068656921,
        0.968812108039856,
        0.9999999403953552
      ],
      "min": [
        -0.9999999403953552,
        -1.0,
        -0.968829870223999
      ],
      "type": "VEC3"
    },
    {
      "bufferView": 1,
      "byteOffset": 3796488,
      "componentType": 5126,
      "count": 65532,
      "max": [
        0.7734827995300293,
        0.9625415205955505
      ],
      "min": [
        0.16194503009319305,
        0.03719661012291908
      ],
      "type": "VEC2"
    },
    {
      "bufferView": 0,
      "byteOffset": 2875392,
      "componentType": 5125,
      "count": 98298,
      "type": "SCALAR"
    },
    {
      "bufferView": 2,
      "byteOffset": 12962232,
      "componentType": 5126,
      "count": 65532,
      "max": [
        0.9819102883338928,
        0.986473023891449,
        2.023202896118164
      ],
      "min": [
        -0.9831337332725525,
        -0.9849899411201477,
        0.05067206174135208
      ],
      "type": "VEC3"
    },
    {
      "bufferView": 2,
      "byteOffset": 13748616,
      "componentType": 5126,
      "count": 65532,
      "max": [
        0.9465624690055847,
        0.9730218648910522,
        0.9730199575424194
      ],
      "min": [
        -0.9465665817260742,
        -0.9730223417282104,
        -0.9730258584022522
      ],
      "type": "VEC3"
    },
    {
      "bufferView": 1,
      "byteOffset": 4320744,
      "componentType": 5126,
      "count": 65532,
      "max": [
        0.7734827995300293,
        0.9625415205955505
      ],
      "min": [
        0.16268883645534515,
        0.0625
      ],
      "type": "VEC2"
    },
    {
      "bufferView": 0,
      "byteOffset": 3268584,
      "componentType": 5125,
      "count": 98298,
      "type": "SCALAR"
    },
    {
      "bufferView": 2,
      "byteOffset": 14535000,
      "componentType": 5126,
      "count": 65532,
      "max": [
        0.981910228729248,
        0.986473023891449,
        1.7525054216384888
      ],
      "min": [
        -0.9831337332725525,
        -0.7167759537696838,
        0.32615262269973755
      ],
      "type": "VEC3"
    },
    {
      "bufferView": 2,
      "byteOffset": 15321384,
      "componentType": 5126,
      "count": 65532,
      "max": [
        0.9999999403953552,
        1.0,
        0.9688156247138977
      ],
      "min": [
        -0.9465653896331787,
        -0.9730233550071716,
        -0.9730212688446045
      ],
      "type": "VEC3"
    },
    {
      "bufferView": 1,
      "byteOffset": 4845000,
      "componentType": 5126,
      "count": 65532,
      "max": [
        0.5873903632164001,
        0.7086173892021179
      ],
      "min": [
        0.412609726190567,
        0.03719661012291908
      ],
      "type": "VEC2"
    },
    {
      "bufferView": 0,
      "byteOffset": 3661776,
      "componentType": 5125,
      "count": 98298,
      "type": "SCALAR"
    },
    {
      "bufferView": 2,
      "byteOffset": 16107768,
      "componentType": 5126,
      "count": 61452,
      "max": [
        0.981910228729248,
        0.7189684510231018,
        1.6981029510498047
      ],
      "min": [
        -0.7189684510231018,
        -0.7189684510231018,
        0.05067206546664238
      ],
      "type": "VEC3"
    },
    {
      "bufferView": 2,
      "byteOffset": 16845192,
      "componentType": 5126,
      "count": 61452,
      "max": [
        0.9398981928825378,
        0.9730211496353149,
        0.9730210304260254
      ],
      "min": [
        -0.9398919343948364,
        -0.9730218052864075,
        -1.0
      ],
      "type": "VEC3"
    },
    {
      "bufferView": 1,
      "byteOffset": 5369256,
      "componentType": 5126,
      "count": 61452,
      "max": [
        0.5836173892021179,
        0.7130551338195801
      ],
      "min": [
        0.16194503009319305,
        0.5369450449943542
      ],
      "type": "VEC2"
    },
    {
      "bufferView": 0,
      "byteOffset": 4054968,
      "componentType": 5125,
      "count": 92178,
      "type": "SCALAR"
    }
  ],
  "asset": {
    "extras": {
      "author": "andile_ngobese (https://sketchfab.com/andile_ngobese)",
      "license": "CC-BY-4.0 (http://creativecommons.org/licenses/by/4.0/)",
      "source": "https://sketchfab.com/3d-models/dice-19a60f5a834547e193457f7548782bbd",
      "title": "Dice"
    },
    "generator": "Sketchfab-15.37.0",
    "version": "2.0"
  },
  "bufferViews": [
    {
      "buffer": 0,
      "byteLength": 4423680,
      "name": "floatBufferViews",
      "target": 34963
    },
    {
      "buffer": 0,
      "byteLength": 5860872,
      "byteOffset": 4423680,
      "byteStride": 8,
      "name": "floatBufferViews",
      "target": 34962
    },
    {
      "buffer": 0,
      "byteLength": 17582616,
      "byteOffset": 10284552,
      "byteStride": 12,
      "name": "floatBufferViews",
      "target": 34962
    }
  ],
  "buffers": [
    {
      "byteLength": 27867168,
      "uri": "scene.bin"
    }
  ],
  "images": [
    {
      "uri": "textures/body_baseColor.jpeg"
    }
  ],
  "materials": [
    {
      "doubleSided": true,
      "name": "body",
      "pbrMetallicRoughness": {
        "baseColorTexture": {
          "index": 0
        },
        "metallicFactor": 0.0,
        "roughnessFactor": 0.09942582682156753
      }
    },
    {
      "doubleSided": true,
      "name": "Whole",
      "pbrMetallicRoughness": {
        "baseColorFactor": [
          0.8,
          0.8,
          0.8,
          1.0
        ],
        "metallicFactor": 0.0,
        "roughnessFactor": 0.8211145618000169
      }
    }
  ],
  "meshes": [
    {
      "name": "Cube_body_0",
      "primitives": [
        {
          "attributes": {
            "NORMAL": 1,
            "POSITION": 0,
            "TEXCOORD_0": 2
          },
          "indices": 3,
          "material": 0,
          "mode": 4
        }
      ]
    },
    {
      "name": "Cube_body_0",
      "primitives": [
        {
          "attributes": {
            "NORMAL": 5,
            "POSITION": 4,
            "TEXCOORD_0": 6
          },
          "indices": 7,
          "material": 0,
          "mode": 4
        }
      ]
    },
    {
      "name": "Cube_body_0",
      "primitives": [
        {
          "attributes": {
            "NORMAL": 9,
            "POSITION": 8,
            "TEXCOORD_0": 10
          },
          "indices": 11,
          "material": 0,
          "mode": 4
        }
      ]
    },
    {
      "name": "Cube_body_0",
      "primitives": [
        {
          "attributes": {
            "NORMAL": 13,
            "POSITION": 12,
            "TEXCOORD_0": 14
          },
          "indices": 15,
          "material": 0,
          "mode": 4
        }
      ]
    },
    {
      "name": "Cube_body_0",
      "primitives": [
        {
          "attributes": {
            "NORMAL": 17,
            "POSITION": 16,
            "TEXCOORD_0": 18
          },
          "indices": 19,
          "material": 0,
          "mode": 4
        }
      ]
    },
    {
      "name": "Cube_body_0",
      "primitives": [
        {
          "attributes": {
            "NORMAL": 21,
            "POSITION": 20,
            "TEXCOORD_0": 22
          },
          "indices": 23,
          "material": 0,
          "mode": 4
        }
      ]
    },
    {
      "name": "Cube_body_0",
      "primitives": [
        {
          "attributes": {
            "NORMAL": 25,
            "POSITION": 24,
            "TEXCOORD_0": 26
          },
          "indices": 27,
          "material": 0,
          "mode": 4
        }
      ]
    },
    {
      "name": "Cube_body_0",
      "primitives": [
        {
          "attributes": {
            "NORMAL": 29,
            "POSITION": 28,
            "TEXCOORD_0": 30
          },
          "indices": 31,
          "material": 0,
          "mode": 4
        }
      ]
    },
    {
      "name": "Cube_Whole_0",
      "primitives": [
        {
          "attributes": {
            "NORMAL": 33,
            "POSITION": 32,
            "TEXCOORD_0": 34
          },
          "indices": 35,
          "material": 1,
          "mode": 4
        }
      ]
    },
    {
      "name": "Cube_Whole_0",
      "primitives": [
        {
          "attributes": {
            "NORMAL": 37,
            "POSITION": 36,
            "TEXCOORD_0": 38
          },
          "indices": 39,
          "material": 1,
          "mode": 4
        }
      ]
    },
    {
      "name": "Cube_Whole_0",
      "primitives": [
        {
          "attributes": {
            "NORMAL": 41,
            "POSITION": 40,
            "TEXCOORD_0": 42
          },
          "indices": 43,
          "material": 1,
          "mode": 4
        }
      ]
    },
    {
      "name": "Cube_Whole_0",
      "primitives": [
        {
          "attributes": {
            "NORMAL": 45,
            "POSITION": 44,
            "TEXCOORD_0": 46
          },
          "indices": 47,
          "material": 1,
          "mode": 4
        }
      ]
    }
  ],
  "nodes": [
    {
      "children": [
        1
      ],
      "matrix": [
        1.0,
        0.0,
        0.0,
        0.0,
        0.0,
        2.220446049250313e-16,
        -1.0,
        0.0,
        0.0,
        1.0,
        2.220446049250313e-16,
        0.0,
        0.0,
        0.0,
        0.0,
        1.0
      ],
      "name": "Sketchfab_model"
    },
    {
      "children": [
        2
      ],
      "matrix": [
        0.009999999776482582,
        0.0,
        0.0,
        0.0,
        0.0,
        0.0,
        0.009999999776482582,
        0.0,
        0.0,
        -0.009999999776482582,
        0.0,
        0.0,
        0.0,
        0.0,
        0.0,
        1.0
      ],
      "name": "dice_.fbx"
    },
    {
      "children": [
        3,
        6,
        8
      ],
      "name": "RootNode"
    },
    {
      "children": [
        4
      ],
      "matrix": [
        -29.08647719990347,
        -5.518906457566863,
        -95.51711910171437,
        0.0,
        56.63930913109449,
        79.46723428563203,
        -21.83912397841966,
        0.0,
        77.11008775993375,
        -60.45246356562044,
        -19.98834696773717,
        0.0,
        407.6245422363281,
        590.38623046875,
        -100.54539489746094,
        1.0
      ],
      "name": "Light"
    },
    {
      "children": [
        5
      ],
      "matrix": [
        1.0,
        0.0,
        0.0,
        0.0,
        0.0,
        2.220446049250313e-16,
        1.0,
        0.0,
        0.0,
        -1.0,
        2.220446049250313e-16,
        0.0,
        0.0,
        0.0,
        0.0,
        1.0
      ],
      "name": "Object_4"
    },
    {
      "name": "Object_5"
    },
    {
      "children": [
        7
      ],
      "matrix": [
        -65.15581009765468,
        -44.527143038140764,
        -61.41704928909654,
        0.0,
        -32.40135466989878,
        89.5395708958271,
        -30.542085476036902,
        0.0,
        68.59207001076176,
        1.2755314797120858e-05,
        -72.76761921184276,
        0.0,
        735.88916015625,
        495.8309326171875,
        692.5791015625,
        1.0
      ],
      "name": "Camera"
    },
    {
      "name": "Object_7"
    },
    {
      "children": [
        9,
        10,
        11,
        12,
        13,
        14,
        15,
        16,
        17,
        18,
        19,
        20
      ],
      "matrix": [
        100.0,
        0.0,
        0.0,
        0.0,
        0.0,
        -1.629206793918314e-05,
        -99.99999999999868,
        0.0,
        0.0,
        99.99999999999868,
        -1.629206793918314e-05,
        0.0,
        0.0,
        0.0,
        0.0,
        1.0
      ],
      "name": "Cube"
    },
    {
      "mesh": 0,
      "name": "Cube_body_0"
    },
    {
      "mesh": 1,
      "name": "Cube_body_0"
    },
    {
      "mesh": 2,
      "name": "Cube_body_0"
    },
    {
      "mesh": 3,
      "name": "Cube_body_0"
    },
    {
      "mesh": 4,
      "name": "Cube_body_0"
    },
    {
      "mesh": 5,
      "name": "Cube_body_0"
    },
    {
      "mesh": 6,
      "name": "Cube_body_0"
    },
    {
      "mesh": 7,
      "name": "Cube_body_0"
    },
    {
      "mesh": 8,
      "name": "Cube_Whole_0"
    },
    {
      "mesh": 9,
      "name": "Cube_Whole_0"
    },
    {
      "mesh": 10,
      "name": "Cube_Whole_0"
    },
    {
      "mesh": 11,
      "name": "Cube_Whole_0"
    }
  ],
  "samplers": [
    {
      "magFilter": 9729,
      "minFilter": 9987,
      "wrapS": 10497,
      "wrapT": 10497
    }
  ],
  "scene": 0,
  "scenes": [
    {
      "name": "Sketchfab_Scene",
      "nodes": [
        0
      ]
    }
  ],
  "textures": [
    {
      "sampler": 0,
      "source": 0
    }
  ]
}
